<?xml version="1.0" standalone="no"?><!DOCTYPE svg PUBLIC "-//W3C//DTD SVG 20010904//EN" "http://www.w3.org/TR/2001/REC-SVG-20010904/DTD/svg10.dtd"><svg xmlns="http://www.w3.org/2000/svg" version="1.0" width="83.000000pt" height="62.000000pt" viewBox="0 0 83.000000 62.000000" preserveAspectRatio="xMidYMid meet">
<metadata>
Created by potrace 1.16, written by Peter Selinger 2001-2019
</metadata>
<g transform="translate(0.000000,62.000000) scale(0.100000,-0.100000)" fill="#3e64ff" stroke="none">
<path d="M335 525 c-83 -29 -145 -132 -130 -214 14 -77 73 -142 146 -161 161 -44 300 132 224 281 -31 58 -116 110 -180 109 -11 -1 -38 -7 -60 -15z m65 -102 l1 -28 20 28 c16 20 29 27 55 27 19 0 34 -4 34 -8 0 -5 -13 -26 -29 -47 l-28 -38 34 -49 35 -48 -44 0 c-37 0 -46 4 -60 28 l-17 27 -1 -27 c0 -25 -4 -28 -35 -28 l-35 0 0 95 0 95 35 0 c31 0 35 -3 35 -27z"/>
</g>
</svg>